<svg data-v-fde0c5aa="" xmlns="http://www.w3.org/2000/svg" viewBox="0 0 300 300" class="icon"><!----><defs data-v-fde0c5aa=""><!----></defs><rect data-v-fde0c5aa="" fill="transparent" x="0" y="0" width="300px" height="300px" class="logo-background-square"></rect><!----><defs data-v-fde0c5aa=""><linearGradient data-v-fde0c5aa="" gradientTransform="rotate(25)" id="aa47a23e-9484-47df-9cf8-bc2cf5be1b80" x1="0%" y1="0%" x2="100%" y2="0%"><stop data-v-fde0c5aa="" offset="0%" stop-color="#E90DDA" stop-opacity="1"></stop><stop data-v-fde0c5aa="" offset="100%" stop-color="#15CFF1" stop-opacity="1"></stop></linearGradient></defs><g data-v-fde0c5aa="" id="749536bf-3c77-41cf-a64f-c8758fbefe2a" fill="url(#aa47a23e-9484-47df-9cf8-bc2cf5be1b80)" stroke="none" transform="matrix(2.2580039935789515,0,0,2.2580039935789515,32.154149113190556,37.7419962755961)"><path d="M45.058 45.104c0 1.004.813 1.816 1.816 1.816a1.813 1.813 0 0 0 1.814-1.815V22.513a1.815 1.815 0 0 0-3.629 0l-.001 22.591zM37.38 47.31a2.027 2.027 0 0 0 3.596-1.872L31.1 26.473a2.026 2.026 0 0 0-2.734-.861 2.026 2.026 0 0 0-.861 2.733L37.38 47.31zM31.548 52.852c1 .725 2.4.506 3.128-.496.728-1 .506-2.4-.495-3.125L17.867 37.365a2.239 2.239 0 1 0-2.634 3.621l16.315 11.866zM28.803 60.809a2.45 2.45 0 0 0 2.801-2.039 2.453 2.453 0 0 0-2.041-2.803L10.83 53.028a2.45 2.45 0 0 0-2.801 2.039 2.453 2.453 0 0 0 2.041 2.803l18.733 2.939zM30.209 69.709a2.663 2.663 0 0 0 1.659-3.381 2.666 2.666 0 0 0-3.38-1.66l-16.799 5.74a2.663 2.663 0 0 0-1.659 3.381 2.665 2.665 0 0 0 3.379 1.66l16.8-5.74zM35.537 76.861a2.874 2.874 0 1 0-4.103-4.027L19.847 84.641a2.875 2.875 0 0 0 4.104 4.027l11.586-11.807zM43.796 80.932a3.087 3.087 0 0 0-2-3.881 3.084 3.084 0 0 0-3.879 2l-4.672 14.604a3.087 3.087 0 0 0 5.879 1.879l4.672-14.602zM53.703 80.656a3.3 3.3 0 0 0-3.815-2.686 3.297 3.297 0 0 0-2.685 3.813l2.415 13.914a3.3 3.3 0 0 0 3.813 2.686 3.3 3.3 0 0 0 2.686-3.813l-2.414-13.914zM62.57 75.889a3.512 3.512 0 0 0-4.899-.795 3.511 3.511 0 0 0-.795 4.9l7.55 10.475a3.514 3.514 0 0 0 4.899.797 3.512 3.512 0 0 0 .795-4.9l-7.55-10.477zM68.49 67.635a3.722 3.722 0 0 0-5.043 1.508 3.722 3.722 0 0 0 1.509 5.041l10.3 5.557a3.722 3.722 0 0 0 5.042-1.508 3.724 3.724 0 0 0-1.509-5.043L68.49 67.635zM69.804 57.258a3.934 3.934 0 0 0-3.934 3.934 3.936 3.936 0 0 0 3.934 3.934h10.491a3.937 3.937 0 0 0 3.934-3.934 3.936 3.936 0 0 0-3.934-3.934H69.804zM93.948 31.152h-9.525v17.041a4.234 4.234 0 0 1-4.236 4.237H70.104a4.238 4.238 0 0 1-4.236-4.237V31.152h-9.416c-2.33 0-3.128-1.549-1.772-3.449L72.737 2.425c1.355-1.9 3.57-1.9 4.926 0l18.058 25.278c1.355 1.9.556 3.449-1.773 3.449z"></path></g><!----></svg>