<svg viewBox="0 0 512 512" xmlns="http://www.w3.org/2000/svg" xmlns:xlink="http://www.w3.org/1999/xlink"><linearGradient id="a" gradientTransform="matrix(1 0 0 -1 0 -10886)" gradientUnits="userSpaceOnUse" x1="0" x2="512" y1="-11142" y2="-11142"><stop offset="0" stop-color="#00f1ff"/><stop offset=".231" stop-color="#00d8ff"/><stop offset=".5138" stop-color="#00c0ff"/><stop offset=".7773" stop-color="#00b2ff"/><stop offset="1" stop-color="#00adff"/></linearGradient><path d="m512 256c0 141.386719-114.613281 256-256 256s-256-114.613281-256-256 114.613281-256 256-256 256 114.613281 256 256zm0 0" fill="url(#a)"/><path d="m426 336.375c-3.835938 0-7.667969-1.460938-10.597656-4.382812l-149.625-149.3125c-5.394532-5.398438-14.160156-5.398438-19.546875-.011719l-149.632813 149.324219c-5.867187 5.851562-15.363281 5.84375-21.214844-.019532-5.851562-5.863281-5.84375-15.363281.023438-21.214844l149.625-149.3125c17.070312-17.074218 44.867188-17.074218 61.949219.007813l149.613281 149.304687c5.867188 5.851563 5.875 15.351563.023438 21.214844-2.929688 2.933594-6.773438 4.402344-10.617188 4.402344zm0 0" fill="#fff"/></svg>